<?xml version="1.0" encoding="UTF-8"?>
<svg width="24px" height="24px" viewBox="0 0 24 24" version="1.1" xmlns="http://www.w3.org/2000/svg" xmlns:xlink="http://www.w3.org/1999/xlink">
    <title>Comment</title>
    <defs>
        <polygon id="path-1" points="0 0.0004 23.9908468 0.0004 23.9908468 23.8189475 0 23.8189475"></polygon>
    </defs>
    <g id="Comment" stroke="none" stroke-width="1" fill="none" fill-rule="evenodd">
        <g id="Group-3">
            <mask id="mask-2" fill="white">
                <use xlink:href="#path-1"></use>
            </mask>
            <g id="Clip-2"></g>
            <path d="M17.4549,13.7014 C16.5339,13.7014 15.7919,12.9624 15.7919,12.0474 C15.7919,11.1354 16.5339,10.3954 17.4549,10.3954 C18.3729,10.3954 19.1179,11.1354 19.1179,12.0474 C19.1179,12.9624 18.3729,13.7014 17.4549,13.7014 M12.2629,13.7014 C11.3449,13.7014 10.5999,12.9624 10.5999,12.0474 C10.5999,11.1354 11.3449,10.3954 12.2629,10.3954 C13.1809,10.3954 13.9259,11.1354 13.9259,12.0474 C13.9259,12.9624 13.1809,13.7014 12.2629,13.7014 M7.0749,13.7014 C6.1569,13.7014 5.4119,12.9624 5.4119,12.0474 C5.4119,11.1354 6.1569,10.3954 7.0749,10.3954 C7.9929,10.3954 8.7379,11.1354 8.7379,12.0474 C8.7379,12.9624 7.9929,13.7014 7.0749,13.7014 M22.2079,18.1604 C25.6819,12.5554 23.9239,5.2204 18.2849,1.7704 C12.6419,-1.6786 5.2549,0.0634 1.7819,5.6684 C0.5859,7.5954 -0.0311,9.8204 0.0009,12.0824 C0.2169,18.6694 5.6859,23.8804 12.3219,23.8184 L21.0949,23.8184 C22.1109,23.8184 22.7409,22.7224 22.2249,21.8524 C21.5319,20.7204 21.5259,19.2994 22.2079,18.1604" id="Fill-1" fill="#00A2F9" mask="url(#mask-2)"></path>
        </g>
    </g>
</svg>