<?xml version="1.0" encoding="UTF-8"?>
<svg width="26px" height="23px" viewBox="0 0 26 23" version="1.1" xmlns="http://www.w3.org/2000/svg" xmlns:xlink="http://www.w3.org/1999/xlink">
    <title>Like-ac</title>
    <g id="Like-ac" stroke="none" stroke-width="1" fill="none" fill-rule="evenodd">
        <path d="M23.27,2.201 C21.962,0.782 20.166,5.15143483e-14 18.215,5.15143483e-14 C16.756,5.15143483e-14 15.42,0.462 14.244,1.371 C13.65,1.83 13.112,2.391 12.638,3.048 C12.164,2.391 11.626,1.83 11.032,1.371 C9.856,0.462 8.52,5.15143483e-14 7.061,5.15143483e-14 C5.109,5.15143483e-14 3.314,0.782 2.005,2.201 C0.713,3.603 2.73558953e-13,5.519 2.73558953e-13,7.596 C2.73558953e-13,9.733 0.797,11.69 2.507,13.754 C4.037,15.599 6.236,17.473 8.783,19.643 C9.652,20.385 10.638,21.224 11.661,22.119 C11.931,22.356 12.278,22.486 12.638,22.486 C12.998,22.486 13.345,22.356 13.615,22.12 C14.638,21.224 15.624,20.385 16.494,19.643 C19.04,17.473 21.239,15.599 22.769,13.754 C24.479,11.69 25.275,9.733 25.275,7.596 C25.275,5.519 24.563,3.603 23.27,2.201" id="Fill-1" fill="#E7685D"></path>
    </g>
</svg>