<?xml version="1.0" encoding="UTF-8"?>
<svg width="125px" height="23px" viewBox="0 0 125 23" version="1.1" xmlns="http://www.w3.org/2000/svg" xmlns:xlink="http://www.w3.org/1999/xlink">
    <title>logo_long</title>
    <defs>
        <polygon id="path-1" points="0.1444 0.101 12.7324 0.101 12.7324 17.2184 0.1444 17.2184"></polygon>
        <polygon id="path-3" points="0.1293 0.6509 12.588 0.6509 12.588 13.7089 0.1293 13.7089"></polygon>
        <polygon id="path-5" points="0 22.8994 124.588 22.8994 124.588 1.0004 0 1.0004"></polygon>
    </defs>
    <g id="ทั่วไป" stroke="none" stroke-width="1" fill="none" fill-rule="evenodd">
        <g id="Home-Feed-ไม่ล้อกอิน" transform="translate(-19.000000, -38.000000)">
            <g id="logo_long" transform="translate(19.000000, 38.000000)">
                <path d="M25.4838,10.5446 L25.4838,18.1176 L21.1518,18.1176 L21.1518,11.0476 C21.1518,9.5976 20.6428,8.8576 19.5118,8.8576 C18.2008,8.8576 17.3838,9.7886 17.3838,11.4016 L17.3838,18.1176 L13.0518,18.1176 L13.0518,1.0006 L17.3838,1.0006 L17.3838,6.3686 C18.3098,5.6236 19.4878,5.1696 20.7408,5.1696 C23.6288,5.1696 25.4838,7.2846 25.4838,10.5446" id="Fill-1" fill="#231F20"></path>
                <path d="M37.9218,11.8263 C37.9218,10.1943 36.7298,8.9683 35.1068,8.9683 C33.4738,8.9683 32.2918,10.1943 32.2918,11.8263 C32.2918,13.4683 33.4838,14.6943 35.1068,14.6943 C36.7298,14.6943 37.9218,13.4683 37.9218,11.8263 L37.9218,11.8263 Z M42.0418,5.5283 L42.0418,18.1043 L38.6928,18.1043 L38.3218,17.2153 C37.2928,18.0493 35.9878,18.5303 34.5268,18.5303 C30.6818,18.5303 27.9328,15.7243 27.9328,11.8163 C27.9328,7.9213 30.6818,5.1493 34.5268,5.1493 C36.0088,5.1493 37.3318,5.6433 38.3698,6.5003 L38.8138,5.5283 L42.0418,5.5283 Z" id="Fill-3" fill="#231F20"></path>
                <path d="M57.7846,10.4494 L57.7846,18.1174 L53.4526,18.1174 L53.4526,11.0484 C53.4526,9.5844 52.9026,8.8584 51.8126,8.8584 C50.4626,8.8584 49.6846,9.8014 49.6846,11.4024 L49.6846,18.1174 L45.3526,18.1174 L45.3526,5.5414 L48.3916,5.5414 L48.9866,6.8384 C49.9236,5.7954 51.3196,5.1694 52.9466,5.1694 C55.8666,5.1694 57.7846,7.2454 57.7846,10.4494" id="Fill-5" fill="#231F20"></path>
                <g id="Group-9" transform="translate(61.000000, 0.899400)">
                    <mask id="mask-2" fill="white">
                        <use xlink:href="#path-1"></use>
                    </mask>
                    <g id="Clip-8"></g>
                    <polygon id="Fill-7" fill="#231F20" mask="url(#mask-2)" points="7.6254 17.2184 4.4754 11.9004 4.4754 17.2184 0.1444 17.2184 0.1444 0.1004 4.4754 0.1004 4.4754 9.5694 7.4714 4.6424 12.3354 4.6424 8.4164 10.6354 12.7324 17.2184"></polygon>
                </g>
                <path d="M95.6815,5.5504 L90.3825,17.6314 C88.6775,21.5014 87.1115,22.8994 83.8465,22.8994 L82.3545,22.8994 L82.3545,19.1574 L83.5525,19.1574 C85.2185,19.1574 85.7215,18.7234 86.3115,17.1504 L81.0855,5.5504 L85.8195,5.5504 L88.5025,12.5154 L91.0025,5.5504 L95.6815,5.5504 Z" id="Fill-10" fill="#231F20"></path>
                <path d="M102.9579,14.6969 C104.5459,14.6969 105.6849,13.5449 105.6849,11.8729 C105.6849,10.2109 104.5459,9.0489 102.9579,9.0489 C101.3709,9.0489 100.2309,10.2009 100.2309,11.8729 C100.2309,13.5439 101.3709,14.6969 102.9579,14.6969 Z M95.8689,11.8729 C95.8689,7.9529 98.8359,5.1359 102.9579,5.1359 C107.0669,5.1359 110.0469,7.9529 110.0469,11.8729 C110.0469,15.7789 107.0669,18.6089 102.9579,18.6089 C98.8359,18.6089 95.8689,15.7789 95.8689,11.8729 L95.8689,11.8729 Z" id="Fill-12" fill="#231F20"></path>
                <g id="Group-16" transform="translate(112.000000, 4.899400)">
                    <mask id="mask-4" fill="white">
                        <use xlink:href="#path-3"></use>
                    </mask>
                    <g id="Clip-15"></g>
                    <path d="M0.1293,7.8669 L0.1293,0.6509 L4.4843,0.6509 L4.4843,7.6779 C4.4843,9.0119 5.2023,9.7969 6.3663,9.7969 C7.5293,9.7969 8.2333,8.9989 8.2333,7.6779 L8.2333,0.6509 L12.5883,0.6509 L12.5883,7.8669 C12.5883,11.4049 10.1013,13.7089 6.3663,13.7089 C2.6303,13.7089 0.1293,11.4049 0.1293,7.8669" id="Fill-14" fill="#231F20" mask="url(#mask-4)"></path>
                </g>
                <path d="M10.474,14.3083 L10.474,18.1653 L7.444,18.1653 C4.617,18.1653 2.898,16.4373 2.898,13.5953 L2.898,8.7713 L0.558,8.7713 L0.558,7.7413 L7.191,1.6413 L7.191,5.3793 L10.403,5.3793 L10.403,8.7713 L7.302,8.7713 L7.302,12.8403 C7.302,13.7563 7.855,14.3083 8.784,14.3083 L10.474,14.3083 Z" id="Fill-17" fill="#231F20"></path>
                <mask id="mask-6" fill="white">
                    <use xlink:href="#path-5"></use>
                </mask>
                <g id="Clip-20"></g>
                <polygon id="Fill-19" fill="#231F20" mask="url(#mask-6)" points="0 8.9944 10.451 8.9944 10.451 5.1644 0 5.1644"></polygon>
                <polygon id="Fill-21" fill="#231F20" mask="url(#mask-6)" points="3.245 7.0174 7.215 7.0174 7.215 1.0644 3.245 1.0644"></polygon>
            </g>
        </g>
    </g>
</svg>