<?xml version="1.0" encoding="UTF-8"?>
<svg width="260px" height="139px" viewBox="0 0 260 139" version="1.1" xmlns="http://www.w3.org/2000/svg" xmlns:xlink="http://www.w3.org/1999/xlink">
    <title>logo-blue-ty</title>
    <g id="logo-blue-ty" stroke="none" stroke-width="1" fill="none" fill-rule="evenodd">
        <g id="Group-24" fill="#00A2F9">
            <path d="M259.4182,57.0796 C259.4182,58.2486 258.4702,59.1966 257.3012,59.1966 C256.1322,59.1966 255.1852,58.2486 255.1852,57.0796 C255.1852,55.9106 256.1322,54.9626 257.3012,54.9626 C258.4702,54.9626 259.4182,55.9106 259.4182,57.0796" id="Fill-1"></path>
            <path d="M254.2503,63.6352 C254.5813,63.0812 255.4143,63.5472 255.1243,64.1232 C232.9803,108.1742 187.3843,138.3952 134.7173,138.3952 C60.4913,138.3952 0.2723,78.3562 0.000296708647,4.1822 C0.000296708647,3.9052 0.2263,3.6772 0.5033,3.6772 L31.3953,3.6772 C31.6643,3.6772 31.8813,3.8932 31.8863,4.1622 C32.8993,69.3752 86.0873,121.9132 151.5243,121.9132 C195.1733,121.9132 233.3633,98.5472 254.2503,63.6352" id="Fill-4"></path>
            <path d="M81.0804,33.8462 L81.0804,43.4862 L73.5104,43.4862 C66.4394,43.4862 62.1494,39.1662 62.1494,32.0662 L62.1494,20.5662 L54.9104,20.5662 L54.9104,10.9962 L63.0104,10.9962 L63.0104,0.7562 L72.9304,0.7562 L72.9304,10.9962 L81.0194,10.9962 L81.0194,20.5662 L73.1494,20.5662 L73.1494,30.1762 C73.1494,32.4662 74.5294,33.8462 76.8504,33.8462 L81.0804,33.8462 Z" id="Fill-7"></path>
            <path d="M119.2698,24.2441 L119.2698,43.4821 L108.2668,43.4821 L108.2668,25.5231 C108.2668,21.8381 106.9718,19.9601 104.1008,19.9601 C100.7718,19.9601 98.6958,22.3231 98.6958,26.4221 L98.6958,43.4821 L87.6918,43.4821 L87.6918,0.0001 L98.6958,0.0001 L98.6958,13.6381 C101.0478,11.7441 104.0398,10.5911 107.2228,10.5911 C114.5568,10.5911 119.2698,15.9641 119.2698,24.2441" id="Fill-9"></path>
            <path d="M150.8684,27.5005 C150.8684,23.3535 147.8394,20.2395 143.7184,20.2395 C139.5714,20.2395 136.5664,23.3535 136.5664,27.5005 C136.5664,31.6725 139.5964,34.7865 143.7184,34.7865 C147.8394,34.7865 150.8684,31.6725 150.8684,27.5005 L150.8684,27.5005 Z M161.3344,11.5025 L161.3344,43.4475 L152.8284,43.4475 L151.8864,41.1885 C149.2694,43.3085 145.9564,44.5285 142.2464,44.5285 C132.4774,44.5285 125.4954,37.4025 125.4954,27.4755 C125.4954,17.5805 132.4774,10.5395 142.2464,10.5395 C146.0094,10.5395 149.3694,11.7955 152.0074,13.9725 L153.1334,11.5015 L161.3344,11.5025 Z" id="Fill-11"></path>
            <path d="M201.3264,24.0024 L201.3264,43.4814 L190.3234,43.4814 L190.3234,25.5234 C190.3234,21.8044 188.9274,19.9604 186.1574,19.9604 C182.7254,19.9604 180.7524,22.3564 180.7524,26.4224 L180.7524,43.4814 L169.7484,43.4814 L169.7484,11.5364 L177.4684,11.5364 L178.9794,14.8304 C181.3584,12.1794 184.9054,10.5914 189.0364,10.5914 C196.4544,10.5914 201.3264,15.8634 201.3264,24.0024" id="Fill-13"></path>
            <polygon id="Fill-15" points="228.8684 43.4819 220.8674 29.9719 220.8674 43.4819 209.8644 43.4819 209.8644 -0.0001 220.8674 -0.0001 220.8674 24.0509 228.4774 11.5359 240.8334 11.5359 230.8774 26.7619 241.8404 43.4819"></polygon>
            <path d="M220.052,49.0669 L216.08,58.1209 C214.803,61.0209 213.629,62.0689 211.183,62.0689 L210.065,62.0689 L210.065,59.2639 L210.962,59.2639 C212.211,59.2639 212.588,58.9389 213.03,57.7589 L209.114,49.0669 L212.661,49.0669 L214.672,54.2869 L216.546,49.0669 L220.052,49.0669 Z" id="Fill-18"></path>
            <path d="M227.5481,53.8052 C227.5481,52.5602 226.6941,51.6892 225.5041,51.6892 C224.3151,51.6892 223.4611,52.5522 223.4611,53.8052 C223.4611,55.0572 224.3151,55.9212 225.5041,55.9212 C226.6941,55.9212 227.5481,55.0582 227.5481,53.8052 M220.1921,53.8042 C220.1921,50.8672 222.4151,48.7562 225.5041,48.7562 C228.5841,48.7562 230.8181,50.8672 230.8181,53.8042 C230.8181,56.7322 228.5841,58.8532 225.5041,58.8532 C222.4151,58.8532 220.1921,56.7322 220.1921,53.8042" id="Fill-20"></path>
            <path d="M232.3772,54.4741 L232.3772,49.0671 L235.6412,49.0671 L235.6412,54.3321 C235.6412,55.3321 236.1782,55.9211 237.0502,55.9211 C237.9222,55.9211 238.4492,55.3231 238.4492,54.3321 L238.4492,49.0671 L241.7142,49.0671 L241.7142,54.4741 C241.7142,57.1261 239.8502,58.8531 237.0502,58.8531 C234.2512,58.8531 232.3772,57.1261 232.3772,54.4741" id="Fill-22"></path>
        </g>
    </g>
</svg>