<?xml version="1.0" encoding="UTF-8"?>
<svg width="21px" height="24px" viewBox="0 0 21 24" version="1.1" xmlns="http://www.w3.org/2000/svg" xmlns:xlink="http://www.w3.org/1999/xlink">
    <title>Share</title>
    <g id="Share" stroke="none" stroke-width="1" fill="none" fill-rule="evenodd">
        <path d="M16.715,16.235 C15.953,16.235 15.256,16.491 14.686,16.909 L6.831,12.106 C6.861,11.928 6.886,11.749 6.886,11.561 C6.886,11.375 6.861,11.196 6.831,11.017 L14.687,6.214 C15.255,6.631 15.953,6.887 16.714,6.887 C18.617,6.887 20.159,5.346 20.159,3.443 C20.16,1.542 18.618,3.55271368e-14 16.715,3.55271368e-14 C14.814,3.55271368e-14 13.272,1.542 13.272,3.443 C13.272,3.63 13.298,3.809 13.327,3.988 L5.472,8.791 C4.903,8.373 4.205,8.117 3.444,8.117 C1.542,8.117 -7.28306304e-14,9.659 -7.28306304e-14,11.56 C-7.28306304e-14,13.463 1.542,15.005 3.444,15.005 C4.205,15.005 4.902,14.749 5.472,14.331 L13.327,19.132 C13.298,19.312 13.272,19.491 13.272,19.677 C13.272,21.58 14.814,23.122 16.715,23.122 C18.618,23.122 20.16,21.579 20.16,19.677 C20.159,17.776 18.616,16.235 16.715,16.235" id="Fill-1" fill="#00A2F9"></path>
    </g>
</svg>